<svg width="22" height="22" viewBox="0 0 22 22" fill="none" xmlns="http://www.w3.org/2000/svg">
<path fill-rule="evenodd" clip-rule="evenodd" d="M3.18202 0.43934C2.59623 -0.146447 1.64648 -0.146447 1.0607 0.43934C0.474909 1.02513 0.474909 1.97487 1.0607 2.56066L9.19242 10.6924L1.06068 18.8241C0.474891 19.4099 0.474891 20.3597 1.06068 20.9454C1.64646 21.5312 2.59621 21.5312 3.182 20.9454L11.3137 12.8137L19.4455 20.9454C20.0313 21.5312 20.981 21.5312 21.5668 20.9454C22.1526 20.3596 22.1526 19.4099 21.5668 18.8241L13.4351 10.6924L21.5668 2.56067C22.1526 1.97488 22.1526 1.02513 21.5668 0.439347C20.981 -0.146439 20.0312 -0.146439 19.4455 0.439347L11.3137 8.57106L3.18202 0.43934Z" fill="#B39C7D"/>
</svg>
