<svg width="29" height="21" viewBox="0 0 29 21" fill="none" xmlns="http://www.w3.org/2000/svg">
<path fill-rule="evenodd" clip-rule="evenodd" d="M0 1.5C0 0.671574 0.67157 0 1.5 0H27.5C28.3284 0 29 0.671574 29 1.5C29 2.32843 28.3284 3 27.5 3H1.5C0.67157 3 0 2.32843 0 1.5ZM0 10.5C0 9.67157 0.67157 9 1.5 9H27.5C28.3284 9 29 9.67157 29 10.5C29 11.3284 28.3284 12 27.5 12H1.5C0.67157 12 0 11.3284 0 10.5ZM1.5 18C0.67157 18 0 18.6716 0 19.5C0 20.3284 0.67157 21 1.5 21H27.5C28.3284 21 29 20.3284 29 19.5C29 18.6716 28.3284 18 27.5 18H1.5Z" fill="#B39C7D"/>
</svg>
