<svg width="137" height="20" fill="none" xmlns="http://www.w3.org/2000/svg"><path fill-rule="evenodd" clip-rule="evenodd" d="m127.231.441 2.717 5.174a.797.797 0 0 0 .59.429l5.774.978c.31.052.549.259.645.557a.8.8 0 0 1-.194.828l-4.094 4.176a.798.798 0 0 0-.225.696l.85 5.776a.807.807 0 0 1-.33.786.807.807 0 0 1-.852.07l-5.245-2.592a.8.8 0 0 0-.732 0l-5.247 2.592a.805.805 0 0 1-.85-.07.804.804 0 0 1-.332-.786l.852-5.776a.8.8 0 0 0-.227-.696l-4.094-4.176a.805.805 0 0 1-.195-.828.806.806 0 0 1 .647-.557l5.772-.978a.804.804 0 0 0 .593-.43l2.715-5.173a.81.81 0 0 1 .732-.441c.316 0 .583.163.73.441ZM98.23.441l2.718 5.174a.797.797 0 0 0 .59.429l5.774.978c.31.052.549.259.645.557a.8.8 0 0 1-.194.828l-4.094 4.176a.798.798 0 0 0-.225.696l.85 5.776a.807.807 0 0 1-.33.786.807.807 0 0 1-.852.07l-5.245-2.592a.8.8 0 0 0-.732 0l-5.247 2.592a.805.805 0 0 1-.85-.07.804.804 0 0 1-.332-.786l.852-5.776a.801.801 0 0 0-.227-.696l-4.094-4.176a.805.805 0 0 1-.195-.828.807.807 0 0 1 .647-.557l5.772-.978a.804.804 0 0 0 .593-.43L96.769.442A.808.808 0 0 1 97.501 0c.316 0 .583.163.73.441ZM69.23.441l2.718 5.174a.8.8 0 0 0 .59.429l5.774.978c.31.052.55.259.645.557a.802.802 0 0 1-.194.828l-4.094 4.176a.796.796 0 0 0-.225.696l.85 5.776a.807.807 0 0 1-.33.786.808.808 0 0 1-.852.07l-5.245-2.592a.8.8 0 0 0-.732 0l-5.247 2.592a.805.805 0 0 1-.85-.07.804.804 0 0 1-.332-.786l.852-5.776a.801.801 0 0 0-.227-.696l-4.094-4.176a.805.805 0 0 1-.195-.828.807.807 0 0 1 .647-.557l5.772-.978a.804.804 0 0 0 .593-.43L67.769.442A.808.808 0 0 1 68.501 0c.316 0 .583.163.73.441ZM40.23.441l2.718 5.174a.8.8 0 0 0 .59.429l5.774.978c.31.052.55.259.646.557a.802.802 0 0 1-.195.828l-4.094 4.176a.796.796 0 0 0-.225.696l.85 5.776a.807.807 0 0 1-.33.786.808.808 0 0 1-.852.07l-5.245-2.592a.8.8 0 0 0-.732 0l-5.247 2.592a.805.805 0 0 1-.85-.07.804.804 0 0 1-.332-.786l.852-5.776a.801.801 0 0 0-.227-.696l-4.094-4.176a.805.805 0 0 1-.195-.828.807.807 0 0 1 .647-.557l5.772-.978a.804.804 0 0 0 .593-.43L38.769.442A.808.808 0 0 1 39.501 0c.316 0 .583.163.73.441ZM11.23.441l2.718 5.174a.8.8 0 0 0 .59.429l5.774.978c.31.052.55.259.645.557a.802.802 0 0 1-.195.828l-4.093 4.176a.796.796 0 0 0-.225.696l.85 5.776a.807.807 0 0 1-.33.786.808.808 0 0 1-.852.07l-5.245-2.592a.8.8 0 0 0-.732 0l-5.247 2.592a.805.805 0 0 1-.85-.07.804.804 0 0 1-.332-.786l.852-5.776a.801.801 0 0 0-.227-.696L.237 8.407a.806.806 0 0 1-.195-.828.808.808 0 0 1 .647-.557l5.772-.978a.804.804 0 0 0 .593-.43L9.769.442A.808.808 0 0 1 10.501 0c.316 0 .583.163.73.441Z" fill="#FCDA50"/></svg>