<svg width="137" height="20" viewBox="0 0 137 20" fill="none" xmlns="http://www.w3.org/2000/svg">
<path fill-rule="evenodd" clip-rule="evenodd" d="M127.231 0.441254L129.948 5.61468C130.07 5.84945 130.277 5.99936 130.538 6.04391L136.312 7.02189C136.622 7.07421 136.861 7.2807 136.957 7.57911C137.054 7.87611 136.984 8.1823 136.763 8.40717L132.669 12.5828C132.484 12.773 132.404 13.0156 132.444 13.2786L133.294 19.0553C133.34 19.3657 133.217 19.6563 132.964 19.8409C132.709 20.0255 132.396 20.0516 132.112 19.9109L126.867 17.3192C126.628 17.2011 126.373 17.2011 126.135 17.3192L120.888 19.9109C120.606 20.0509 120.291 20.0255 120.038 19.8409C119.783 19.6563 119.66 19.3657 119.706 19.0553L120.558 13.2786C120.596 13.0163 120.518 12.7738 120.331 12.5828L116.237 8.40717C116.018 8.18301 115.945 7.87611 116.042 7.57911C116.14 7.2807 116.377 7.07421 116.689 7.02189L122.461 6.04391C122.723 6.00007 122.929 5.84945 123.054 5.61468L125.769 0.441254C125.916 0.162642 126.186 0 126.501 0C126.817 0 127.084 0.162642 127.231 0.441254Z" fill="#FCDA50"/>
<path fill-rule="evenodd" clip-rule="evenodd" d="M98.2306 0.441254L100.948 5.61468C101.07 5.84945 101.277 5.99936 101.538 6.04391L107.312 7.02189C107.622 7.07421 107.861 7.2807 107.957 7.57911C108.054 7.87611 107.984 8.1823 107.763 8.40717L103.669 12.5828C103.484 12.773 103.404 13.0156 103.444 13.2786L104.294 19.0553C104.34 19.3657 104.217 19.6563 103.964 19.8409C103.709 20.0255 103.396 20.0516 103.112 19.9109L97.8669 17.3192C97.628 17.2011 97.3728 17.2011 97.1352 17.3192L91.8879 19.9109C91.6064 20.0509 91.2909 20.0255 91.0378 19.8409C90.7826 19.6563 90.6599 19.3657 90.706 19.0553L91.5582 13.2786C91.5965 13.0163 91.5178 12.7738 91.3313 12.5828L87.2368 8.40717C87.0177 8.18301 86.9454 7.87611 87.0419 7.57911C87.1404 7.2807 87.3772 7.07421 87.6892 7.02189L93.4612 6.04391C93.7228 6.00007 93.9291 5.84945 94.0539 5.61468L96.7694 0.441254C96.9162 0.162642 97.1856 0 97.5011 0C97.8166 0 98.0839 0.162642 98.2306 0.441254Z" fill="#FCDA50"/>
<path fill-rule="evenodd" clip-rule="evenodd" d="M69.2306 0.441254L71.9476 5.61468C72.0702 5.84945 72.2772 5.99936 72.5382 6.04391L78.3123 7.02189C78.6221 7.07421 78.8611 7.2807 78.9575 7.57911C79.0539 7.87611 78.9837 8.1823 78.7625 8.40717L74.6687 12.5828C74.4837 12.773 74.4035 13.0156 74.444 13.2786L75.2941 19.0553C75.3401 19.3657 75.2175 19.6563 74.9644 19.8409C74.7091 20.0255 74.3957 20.0516 74.1121 19.9109L68.8669 17.3192C68.628 17.2011 68.3728 17.2011 68.1352 17.3192L62.8879 19.9109C62.6064 20.0509 62.2909 20.0255 62.0378 19.8409C61.7826 19.6563 61.6599 19.3657 61.706 19.0553L62.5582 13.2786C62.5965 13.0163 62.5178 12.7738 62.3313 12.5828L58.2368 8.40717C58.0177 8.18301 57.9454 7.87611 58.0419 7.57911C58.1404 7.2807 58.3772 7.07421 58.6892 7.02189L64.4612 6.04391C64.7228 6.00007 64.9291 5.84945 65.0539 5.61468L67.7694 0.441254C67.9162 0.162642 68.1856 0 68.5011 0C68.8166 0 69.0839 0.162642 69.2306 0.441254Z" fill="#FCDA50"/>
<path fill-rule="evenodd" clip-rule="evenodd" d="M40.2306 0.441254L42.9476 5.61468C43.0702 5.84945 43.2772 5.99936 43.5382 6.04391L49.3123 7.02189C49.6221 7.07421 49.8611 7.2807 49.9575 7.57911C50.0539 7.87611 49.9837 8.1823 49.7625 8.40717L45.6687 12.5828C45.4837 12.773 45.4035 13.0156 45.444 13.2786L46.2941 19.0553C46.3401 19.3657 46.2175 19.6563 45.9644 19.8409C45.7091 20.0255 45.3957 20.0516 45.1121 19.9109L39.8669 17.3192C39.628 17.2011 39.3728 17.2011 39.1352 17.3192L33.8879 19.9109C33.6064 20.0509 33.2909 20.0255 33.0378 19.8409C32.7826 19.6563 32.6599 19.3657 32.706 19.0553L33.5582 13.2786C33.5965 13.0163 33.5178 12.7738 33.3313 12.5828L29.2368 8.40717C29.0177 8.18301 28.9454 7.87611 29.0419 7.57911C29.1404 7.2807 29.3772 7.07421 29.6892 7.02189L35.4612 6.04391C35.7228 6.00007 35.9291 5.84945 36.0539 5.61468L38.7694 0.441254C38.9162 0.162642 39.1856 0 39.5011 0C39.8166 0 40.0839 0.162642 40.2306 0.441254Z" fill="#FCDA50"/>
<path fill-rule="evenodd" clip-rule="evenodd" d="M11.2306 0.441254L13.9476 5.61468C14.0702 5.84945 14.2772 5.99936 14.5382 6.04391L20.3123 7.02189C20.6221 7.07421 20.8611 7.2807 20.9575 7.57911C21.0539 7.87611 20.9837 8.1823 20.7625 8.40717L16.6687 12.5828C16.4837 12.773 16.4035 13.0156 16.444 13.2786L17.2941 19.0553C17.3401 19.3657 17.2175 19.6563 16.9644 19.8409C16.7091 20.0255 16.3957 20.0516 16.1121 19.9109L10.8669 17.3192C10.628 17.2011 10.3728 17.2011 10.1352 17.3192L4.8879 19.9109C4.60642 20.0509 4.29092 20.0255 4.0378 19.8409C3.78256 19.6563 3.6599 19.3657 3.70599 19.0553L4.55821 13.2786C4.5965 13.0163 4.5178 12.7738 4.33133 12.5828L0.236829 8.40717C0.0177462 8.18301 -0.0545723 7.87611 0.0418523 7.57911C0.140404 7.2807 0.377211 7.07421 0.689173 7.02189L6.46118 6.04391C6.7228 6.00007 6.92912 5.84945 7.05391 5.61468L9.76939 0.441254C9.91616 0.162642 10.1856 0 10.5011 0C10.8166 0 11.0839 0.162642 11.2306 0.441254Z" fill="#FCDA50"/>
</svg>
