<svg width="29" height="22" viewBox="0 0 29 22" fill="none" xmlns="http://www.w3.org/2000/svg">
<path d="M8.73881 4.62986C8.30409 3.23331 7.1241 3.38637 6.31731 4.03682C4.3299 5.77768 1.74214 9.43163 3.39832 14.6931C4.78536 19.1505 10.5568 22.001 10.5568 22.001H3.82883C3.82883 22.001 0.354878 18.3087 0.0443284 13.9662C-0.348999 8.47576 1.96983 5.01308 4.66111 2.75576C7.18676 0.63226 9.58822 0.000976562 9.58822 0.000976562L14.5006 15.2635L19.4129 0.000976562C19.4129 0.000976562 21.8144 0.632261 24.34 2.75576C27.0313 5.01308 29.3501 8.47576 28.9568 13.9662C28.6463 18.3087 25.1723 22.001 25.1723 22.001H18.4443C18.4443 22.001 24.2153 19.1505 25.6028 14.6931C27.259 9.43223 24.6712 5.77828 22.6838 4.03682C21.8764 3.38637 20.6964 3.23331 20.2623 4.62986C18.7718 9.08725 14.5012 21.8586 14.5012 21.8586C14.5012 21.8586 10.2306 9.08299 8.74003 4.62986H8.73881Z" fill="#DB3E3E"/>
</svg>
