<svg width="29" height="22" fill="none" xmlns="http://www.w3.org/2000/svg"><path d="M8.739 4.63c-.435-1.397-1.615-1.244-2.422-.593-1.987 1.74-4.575 5.395-2.919 10.656 1.387 4.458 7.159 7.308 7.159 7.308H3.829S.355 18.309.044 13.966c-.393-5.49 1.926-8.953 4.617-11.21C7.187.632 9.588 0 9.588 0l4.913 15.263L19.413 0s2.401.631 4.927 2.755c2.691 2.257 5.01 5.72 4.617 11.21-.31 4.343-3.785 8.035-3.785 8.035h-6.728s5.771-2.85 7.159-7.308c1.656-5.26-.932-8.915-2.92-10.656-.807-.65-1.987-.804-2.42.593L14.5 21.859S10.231 9.083 8.74 4.629h-.001Z" fill="#DB3E3E"/></svg>